<svg width="708" height="62" viewBox="0 0 708 62" fill="none" xmlns="http://www.w3.org/2000/svg">
<rect width="708" height="62" rx="12" fill="url(#paint0_linear_291_4694)"/>
<path d="M311.32 39V23.6H316.787C317.579 23.6 318.294 23.7613 318.932 24.084C319.577 24.4067 320.087 24.8723 320.461 25.481C320.842 26.0823 321.033 26.8047 321.033 27.648C321.033 28.0587 320.967 28.462 320.835 28.858C320.703 29.254 320.516 29.6023 320.274 29.903C320.032 30.2037 319.739 30.4163 319.394 30.541C319.863 30.6583 320.252 30.871 320.56 31.179C320.875 31.4797 321.125 31.8317 321.308 32.235C321.491 32.6383 321.62 33.0563 321.693 33.489C321.774 33.9217 321.814 34.3323 321.814 34.721C321.814 35.5423 321.616 36.2757 321.22 36.921C320.824 37.5663 320.292 38.076 319.625 38.45C318.965 38.8167 318.235 39 317.436 39H311.32ZM313.608 37.02H317.216C317.685 37.02 318.111 36.9027 318.492 36.668C318.881 36.4333 319.189 36.1107 319.416 35.7C319.643 35.282 319.757 34.8127 319.757 34.292C319.757 33.8373 319.643 33.4083 319.416 33.005C319.189 32.5943 318.881 32.2643 318.492 32.015C318.111 31.7657 317.685 31.641 317.216 31.641H313.608V37.02ZM313.608 29.694H316.545C317.146 29.694 317.663 29.5107 318.096 29.144C318.529 28.7773 318.745 28.275 318.745 27.637C318.745 26.955 318.529 26.4453 318.096 26.108C317.663 25.7633 317.146 25.591 316.545 25.591H313.608V29.694ZM323.609 33.742V28H325.897V33.698C325.897 34.3213 326.025 34.8897 326.282 35.403C326.546 35.909 326.902 36.316 327.349 36.624C327.804 36.9247 328.321 37.075 328.9 37.075C329.465 37.075 329.96 36.9247 330.385 36.624C330.818 36.316 331.151 35.909 331.386 35.403C331.628 34.8897 331.749 34.3213 331.749 33.698V28H334.037V39H331.749V37.504C331.368 38.054 330.906 38.4903 330.363 38.813C329.82 39.1357 329.208 39.297 328.526 39.297C327.543 39.297 326.682 39.0477 325.941 38.549C325.208 38.043 324.639 37.3683 324.236 36.525C323.833 35.6817 323.624 34.754 323.609 33.742ZM343.927 28H346.369L340.341 44.5H337.91L339.901 39L335.952 28H338.449L341.045 35.865L343.927 28ZM353.991 39V23.6H356.466L363.528 34.864V23.6H365.816V39H363.352L356.268 27.736V39H353.991ZM373.094 39.286C372.082 39.286 371.158 39.0257 370.322 38.505C369.493 37.9843 368.829 37.2877 368.331 36.415C367.839 35.535 367.594 34.5633 367.594 33.5C367.594 32.6933 367.737 31.9417 368.023 31.245C368.309 30.541 368.701 29.925 369.2 29.397C369.706 28.8617 370.292 28.4437 370.96 28.143C371.627 27.8423 372.338 27.692 373.094 27.692C374.106 27.692 375.026 27.9523 375.855 28.473C376.691 28.9937 377.354 29.694 377.846 30.574C378.344 31.454 378.594 32.4293 378.594 33.5C378.594 34.2993 378.451 35.0473 378.165 35.744C377.879 36.4407 377.483 37.0567 376.977 37.592C376.478 38.12 375.895 38.5343 375.228 38.835C374.568 39.1357 373.856 39.286 373.094 39.286ZM373.094 36.998C373.702 36.998 374.249 36.8367 374.733 36.514C375.217 36.1913 375.598 35.766 375.877 35.238C376.163 34.7027 376.306 34.1233 376.306 33.5C376.306 32.862 376.159 32.2753 375.866 31.74C375.58 31.2047 375.195 30.7793 374.711 30.464C374.227 30.1413 373.688 29.98 373.094 29.98C372.492 29.98 371.946 30.1413 371.455 30.464C370.971 30.7867 370.586 31.2157 370.3 31.751C370.021 32.2863 369.882 32.8693 369.882 33.5C369.882 34.1527 370.028 34.743 370.322 35.271C370.615 35.799 371.004 36.2207 371.488 36.536C371.979 36.844 372.514 36.998 373.094 36.998ZM385.286 39H383.009L379.324 28H381.568L384.164 35.722L386.738 28H389.048L391.622 35.722L394.207 28H396.451L392.777 39H390.478L387.882 31.223L385.286 39Z" fill="white"/>
<defs>
<linearGradient id="paint0_linear_291_4694" x1="-2.42949e-06" y1="31" x2="707.018" y2="58.8677" gradientUnits="userSpaceOnUse">
<stop stop-color="#E9A707"/>
<stop offset="1" stop-color="#F2800D"/>
</linearGradient>
</defs>
</svg>
