<svg width="74" height="35" viewBox="0 0 74 35" fill="none" xmlns="http://www.w3.org/2000/svg">
<path d="M17.984 23.208C17.2267 23.208 16.5147 23.0587 15.848 22.76C15.1813 22.456 14.5947 22.04 14.088 21.512C13.5867 20.9787 13.192 20.36 12.904 19.656C12.6213 18.952 12.48 18.2 12.48 17.4C12.48 16.6 12.6213 15.848 12.904 15.144C13.192 14.44 13.5867 13.824 14.088 13.296C14.5947 12.7627 15.1813 12.3467 15.848 12.048C16.5147 11.744 17.2267 11.592 17.984 11.592C18.8907 11.592 19.7253 11.8027 20.488 12.224C21.2507 12.6453 21.8827 13.2053 22.384 13.904L21.192 14.544C20.8187 14.0533 20.3467 13.664 19.776 13.376C19.2107 13.0827 18.6133 12.936 17.984 12.936C17.4027 12.936 16.8587 13.0533 16.352 13.288C15.8507 13.5227 15.4107 13.8453 15.032 14.256C14.6533 14.6667 14.3573 15.1413 14.144 15.68C13.9307 16.2187 13.824 16.792 13.824 17.4C13.824 18.0133 13.9307 18.5893 14.144 19.128C14.3627 19.6667 14.6613 20.1413 15.04 20.552C15.424 20.9627 15.8667 21.2853 16.368 21.52C16.8747 21.7493 17.4133 21.864 17.984 21.864C18.6347 21.864 19.2373 21.7173 19.792 21.424C20.352 21.1253 20.8187 20.736 21.192 20.256L22.384 20.904C21.8827 21.6027 21.2507 22.1627 20.488 22.584C19.7253 23 18.8907 23.208 17.984 23.208ZM30.0738 15H31.4178V23H30.0658L30.0178 21.648C29.7671 22.112 29.4204 22.488 28.9778 22.776C28.5404 23.064 28.0204 23.208 27.4178 23.208C26.8258 23.208 26.2738 23.0987 25.7618 22.88C25.2498 22.656 24.7964 22.3493 24.4018 21.96C24.0124 21.5653 23.7084 21.112 23.4898 20.6C23.2711 20.088 23.1618 19.536 23.1618 18.944C23.1618 18.3733 23.2684 17.8347 23.4818 17.328C23.6951 16.8213 23.9911 16.3787 24.3698 16C24.7538 15.616 25.1964 15.3173 25.6978 15.104C26.1991 14.8853 26.7351 14.776 27.3058 14.776C27.9404 14.776 28.4951 14.9253 28.9698 15.224C29.4498 15.5173 29.8338 15.8987 30.1218 16.368L30.0738 15ZM27.4498 21.904C27.9831 21.904 28.4418 21.7707 28.8258 21.504C29.2098 21.2373 29.5004 20.88 29.6978 20.432C29.9004 19.984 29.9911 19.488 29.9698 18.944C29.9484 18.4107 29.8231 17.928 29.5938 17.496C29.3644 17.064 29.0551 16.7227 28.6658 16.472C28.2764 16.216 27.8231 16.088 27.3058 16.088C26.7778 16.088 26.2978 16.2213 25.8658 16.488C25.4338 16.7547 25.0951 17.112 24.8498 17.56C24.6098 18.008 24.5004 18.5067 24.5218 19.056C24.5484 19.584 24.6978 20.064 24.9698 20.496C25.2418 20.928 25.5938 21.272 26.0258 21.528C26.4631 21.7787 26.9378 21.904 27.4498 21.904ZM40.519 18.744V23H39.175V18.776C39.175 18.28 39.071 17.8293 38.863 17.424C38.655 17.0133 38.3723 16.688 38.015 16.448C37.6577 16.2027 37.255 16.08 36.807 16.08C36.3643 16.08 35.9697 16.2027 35.623 16.448C35.2817 16.688 35.0123 17.0133 34.815 17.424C34.6177 17.8293 34.519 18.28 34.519 18.776V23H33.175V15H34.519V16.232C34.807 15.7787 35.1617 15.424 35.583 15.168C36.0097 14.9067 36.4843 14.776 37.007 14.776C37.7003 14.776 38.3083 14.9573 38.831 15.32C39.359 15.6827 39.7697 16.1653 40.063 16.768C40.3617 17.3653 40.5137 18.024 40.519 18.744ZM47.5501 20.888L48.7501 21.536C48.3875 22.0427 47.9261 22.448 47.3661 22.752C46.8115 23.056 46.2088 23.208 45.5581 23.208C44.8221 23.208 44.1501 23.0187 43.5421 22.64C42.9395 22.2613 42.4568 21.7547 42.0941 21.12C41.7368 20.48 41.5581 19.7733 41.5581 19C41.5581 18.4133 41.6621 17.8667 41.8701 17.36C42.0781 16.848 42.3635 16.4 42.7261 16.016C43.0941 15.6267 43.5208 15.3227 44.0061 15.104C44.4915 14.8853 45.0088 14.776 45.5581 14.776C46.2088 14.776 46.8115 14.928 47.3661 15.232C47.9261 15.536 48.3875 15.944 48.7501 16.456L47.5501 17.104C47.2941 16.7893 46.9901 16.5467 46.6381 16.376C46.2861 16.2053 45.9261 16.12 45.5581 16.12C45.0621 16.12 44.6115 16.2533 44.2061 16.52C43.8061 16.7813 43.4888 17.1307 43.2541 17.568C43.0195 18.0053 42.9021 18.4827 42.9021 19C42.9021 19.5173 43.0195 19.9947 43.2541 20.432C43.4941 20.864 43.8141 21.2107 44.2141 21.472C44.6195 21.7333 45.0675 21.864 45.5581 21.864C45.9528 21.864 46.3235 21.7733 46.6701 21.592C47.0168 21.4107 47.3101 21.176 47.5501 20.888ZM53.5269 23.208C52.7909 23.208 52.1189 23.0187 51.5109 22.64C50.9082 22.2613 50.4255 21.7547 50.0629 21.12C49.7055 20.48 49.5269 19.7733 49.5269 19C49.5269 18.4133 49.6309 17.8667 49.8389 17.36C50.0469 16.848 50.3322 16.4 50.6949 16.016C51.0629 15.6267 51.4895 15.3227 51.9749 15.104C52.4602 14.8853 52.9775 14.776 53.5269 14.776C54.1295 14.776 54.6815 14.8987 55.1829 15.144C55.6895 15.384 56.1215 15.72 56.4789 16.152C56.8415 16.584 57.1109 17.0853 57.2869 17.656C57.4682 18.2267 57.5349 18.8373 57.4869 19.488H50.9589C51.0229 19.9413 51.1722 20.3467 51.4069 20.704C51.6415 21.056 51.9402 21.336 52.3029 21.544C52.6709 21.752 53.0789 21.8587 53.5269 21.864C54.0069 21.864 54.4415 21.7413 54.8309 21.496C55.2202 21.2453 55.5349 20.904 55.7749 20.472L57.1429 20.792C56.8229 21.5013 56.3402 22.0827 55.6949 22.536C55.0495 22.984 54.3269 23.208 53.5269 23.208ZM50.9189 18.432H56.1349C56.0922 17.984 55.9482 17.576 55.7029 17.208C55.4575 16.8347 55.1455 16.536 54.7669 16.312C54.3882 16.088 53.9749 15.976 53.5269 15.976C53.0789 15.976 52.6682 16.0853 52.2949 16.304C51.9215 16.5227 51.6122 16.8187 51.3669 17.192C51.1269 17.56 50.9775 17.9733 50.9189 18.432ZM58.9554 23V11H60.2914V23H58.9554Z" fill="white"/>
<path d="M8 1H66V-1H8V1ZM73 8V27H75V8H73ZM66 34H8V36H66V34ZM1 27V8H-1V27H1ZM8 34C4.13401 34 1 30.866 1 27H-1C-1 31.9706 3.02944 36 8 36V34ZM73 27C73 30.866 69.866 34 66 34V36C70.9706 36 75 31.9706 75 27H73ZM66 1C69.866 1 73 4.13401 73 8H75C75 3.02944 70.9706 -1 66 -1V1ZM8 -1C3.02944 -1 -1 3.02944 -1 8H1C1 4.13401 4.13401 1 8 1V-1Z" fill="url(#paint0_linear_374_2561)"/>
<defs>
<linearGradient id="paint0_linear_374_2561" x1="-2.5393e-07" y1="17.5" x2="74.0082" y2="18.0401" gradientUnits="userSpaceOnUse">
<stop stop-color="#E9A707"/>
<stop offset="1" stop-color="#F2800D"/>
</linearGradient>
</defs>
</svg>
