<svg width="155" height="40" viewBox="0 0 155 40" fill="none" xmlns="http://www.w3.org/2000/svg">
<path d="M25.019 18.9996C23.3466 18.9996 21.6743 18.9996 19.9998 18.9996C19.9998 19.6942 19.9998 20.3867 19.9998 21.0813C20.9688 21.0813 21.9378 21.0813 22.9068 21.0813C22.7936 21.7454 22.3994 22.3552 21.8398 22.7275C21.487 22.9649 21.082 23.1173 20.6661 23.1913C20.2458 23.2632 19.8125 23.2719 19.3944 23.187C18.9676 23.102 18.5626 22.9235 18.2077 22.6753C17.6415 22.2768 17.2082 21.6932 16.9861 21.0377C16.7596 20.3714 16.7574 19.6267 16.9861 18.9604C17.145 18.49 17.4107 18.0567 17.7591 17.7039C18.1902 17.2641 18.7499 16.9483 19.3509 16.8199C19.8669 16.7088 20.4113 16.7306 20.9165 16.883C21.3455 17.0137 21.7418 17.2488 22.0663 17.558C22.3951 17.2314 22.7195 16.9048 23.0483 16.5782C23.2203 16.4018 23.4011 16.2341 23.5666 16.0534C23.0701 15.5939 22.4865 15.2237 21.8507 14.9907C20.7053 14.5683 19.4118 14.5596 18.2578 14.9603C16.9556 15.4045 15.8494 16.3757 15.2353 17.606C15.0219 18.0284 14.8652 18.4813 14.7715 18.9473C14.5363 20.1036 14.6997 21.3382 15.2353 22.3943C15.5816 23.0824 16.0802 23.6943 16.6834 24.1756C17.2539 24.6307 17.9181 24.966 18.6214 25.1533C19.5098 25.3906 20.4549 25.3863 21.3498 25.1816C22.1577 24.9965 22.922 24.6089 23.5339 24.0449C24.1785 23.4526 24.6401 22.6709 24.884 21.8304C25.1475 20.9158 25.1845 19.9381 25.019 18.9996Z" fill="white"/>
<path d="M44.9528 26.208C44.1954 26.208 43.4834 26.0587 42.8168 25.76C42.1501 25.456 41.5634 25.04 41.0568 24.512C40.5554 23.9787 40.1608 23.36 39.8728 22.656C39.5901 21.952 39.4488 21.2 39.4488 20.4C39.4488 19.6 39.5901 18.848 39.8728 18.144C40.1608 17.44 40.5554 16.824 41.0568 16.296C41.5634 15.7627 42.1501 15.3467 42.8168 15.048C43.4834 14.744 44.1954 14.592 44.9528 14.592C45.8594 14.592 46.6941 14.8027 47.4568 15.224C48.2194 15.6453 48.8514 16.2053 49.3528 16.904L47.8728 17.696C47.5261 17.2587 47.0968 16.9093 46.5848 16.648C46.0728 16.3867 45.5288 16.256 44.9528 16.256C44.4194 16.256 43.9208 16.3653 43.4568 16.584C42.9928 16.8027 42.5848 17.1013 42.2328 17.48C41.8808 17.8587 41.6061 18.2987 41.4088 18.8C41.2114 19.3013 41.1128 19.8347 41.1128 20.4C41.1128 20.9707 41.2114 21.5067 41.4088 22.008C41.6061 22.504 41.8808 22.944 42.2328 23.328C42.5901 23.7067 43.0008 24.0053 43.4648 24.224C43.9288 24.4373 44.4248 24.544 44.9528 24.544C45.5394 24.544 46.0861 24.4133 46.5928 24.152C47.1048 23.8853 47.5314 23.5333 47.8728 23.096L49.3528 23.904C48.8514 24.6027 48.2194 25.1627 47.4568 25.584C46.6941 26 45.8594 26.208 44.9528 26.208ZM54.0113 26.208C53.2753 26.208 52.6033 26.0187 51.9953 25.64C51.3926 25.2613 50.9099 24.7547 50.5473 24.12C50.1899 23.48 50.0113 22.7733 50.0113 22C50.0113 21.4133 50.1153 20.8667 50.3233 20.36C50.5313 19.848 50.8166 19.4 51.1793 19.016C51.5473 18.6267 51.9739 18.3227 52.4593 18.104C52.9446 17.8853 53.4619 17.776 54.0113 17.776C54.7473 17.776 55.4166 17.9653 56.0193 18.344C56.6273 18.7227 57.1099 19.232 57.4673 19.872C57.8299 20.512 58.0113 21.2213 58.0113 22C58.0113 22.5813 57.9073 23.1253 57.6993 23.632C57.4913 24.1387 57.2033 24.5867 56.8353 24.976C56.4726 25.36 56.0486 25.6613 55.5633 25.88C55.0833 26.0987 54.5659 26.208 54.0113 26.208ZM54.0113 24.544C54.4539 24.544 54.8513 24.4267 55.2033 24.192C55.5553 23.9573 55.8326 23.648 56.0353 23.264C56.2433 22.8747 56.3473 22.4533 56.3473 22C56.3473 21.536 56.2406 21.1093 56.0273 20.72C55.8193 20.3307 55.5393 20.0213 55.1873 19.792C54.8353 19.5573 54.4433 19.44 54.0113 19.44C53.5739 19.44 53.1766 19.5573 52.8193 19.792C52.4673 20.0267 52.1873 20.3387 51.9793 20.728C51.7766 21.1173 51.6753 21.5413 51.6753 22C51.6753 22.4747 51.7819 22.904 51.9953 23.288C52.2086 23.672 52.4913 23.9787 52.8433 24.208C53.2006 24.432 53.5899 24.544 54.0113 24.544ZM66.7278 21.808V26H65.0638V21.84C65.0638 21.3867 64.9678 20.976 64.7758 20.608C64.5891 20.2347 64.3304 19.9387 63.9998 19.72C63.6744 19.496 63.3038 19.384 62.8878 19.384C62.4718 19.384 62.1064 19.496 61.7918 19.72C61.4824 19.9387 61.2398 20.2347 61.0638 20.608C60.8931 20.976 60.8078 21.3867 60.8078 21.84V26H59.1438V18H60.8078V19.08C61.0851 18.6747 61.4211 18.3573 61.8158 18.128C62.2104 17.8933 62.6558 17.776 63.1518 17.776C63.8718 17.776 64.4958 17.96 65.0238 18.328C65.5571 18.696 65.9731 19.184 66.2718 19.792C66.5704 20.4 66.7224 21.072 66.7278 21.808ZM75.9153 21.808V26H74.2513V21.84C74.2513 21.3867 74.1553 20.976 73.9633 20.608C73.7766 20.2347 73.5179 19.9387 73.1873 19.72C72.8619 19.496 72.4913 19.384 72.0753 19.384C71.6593 19.384 71.2939 19.496 70.9793 19.72C70.6699 19.9387 70.4273 20.2347 70.2513 20.608C70.0806 20.976 69.9953 21.3867 69.9953 21.84V26H68.3313V18H69.9953V19.08C70.2726 18.6747 70.6086 18.3573 71.0033 18.128C71.3979 17.8933 71.8433 17.776 72.3393 17.776C73.0593 17.776 73.6833 17.96 74.2113 18.328C74.7446 18.696 75.1606 19.184 75.4593 19.792C75.7579 20.4 75.9099 21.072 75.9153 21.808ZM80.9331 26.208C80.1971 26.208 79.5251 26.0187 78.9171 25.64C78.3145 25.2613 77.8318 24.7547 77.4691 24.12C77.1118 23.48 76.9331 22.7733 76.9331 22C76.9331 21.4133 77.0371 20.8667 77.2451 20.36C77.4531 19.848 77.7385 19.4 78.1011 19.016C78.4691 18.6267 78.8958 18.3227 79.3811 18.104C79.8665 17.8853 80.3838 17.776 80.9331 17.776C81.5465 17.776 82.1091 17.904 82.6211 18.16C83.1331 18.4107 83.5705 18.76 83.9331 19.208C84.2958 19.6507 84.5625 20.1627 84.7331 20.744C84.9038 21.32 84.9545 21.9333 84.8851 22.584H78.7171C78.7865 22.952 78.9198 23.2853 79.1171 23.584C79.3198 23.8773 79.5758 24.1093 79.8851 24.28C80.1998 24.4507 80.5491 24.5387 80.9331 24.544C81.3385 24.544 81.7065 24.4427 82.0371 24.24C82.3731 24.0373 82.6478 23.7573 82.8611 23.4L84.5491 23.792C84.2291 24.5013 83.7465 25.0827 83.1011 25.536C82.4558 25.984 81.7331 26.208 80.9331 26.208ZM78.6611 21.312H83.2051C83.1518 20.928 83.0158 20.5813 82.7971 20.272C82.5838 19.9573 82.3145 19.7093 81.9891 19.528C81.6691 19.3413 81.3171 19.248 80.9331 19.248C80.5545 19.248 80.2025 19.3387 79.8771 19.52C79.5571 19.7013 79.2905 19.9493 79.0771 20.264C78.8691 20.5733 78.7305 20.9227 78.6611 21.312ZM91.434 23.728L92.922 24.536C92.5593 25.0427 92.098 25.448 91.538 25.752C90.9833 26.056 90.3807 26.208 89.73 26.208C88.994 26.208 88.322 26.0187 87.714 25.64C87.1113 25.2613 86.6287 24.7547 86.266 24.12C85.9087 23.48 85.73 22.7733 85.73 22C85.73 21.4133 85.834 20.8667 86.042 20.36C86.25 19.848 86.5353 19.4 86.898 19.016C87.266 18.6267 87.6927 18.3227 88.178 18.104C88.6633 17.8853 89.1807 17.776 89.73 17.776C90.3807 17.776 90.9833 17.928 91.538 18.232C92.098 18.536 92.5593 18.944 92.922 19.456L91.434 20.264C91.21 19.9973 90.9487 19.7947 90.65 19.656C90.3513 19.512 90.0447 19.44 89.73 19.44C89.2927 19.44 88.8953 19.56 88.538 19.8C88.186 20.0347 87.906 20.3467 87.698 20.736C87.4953 21.12 87.394 21.5413 87.394 22C87.394 22.4533 87.498 22.8747 87.706 23.264C87.914 23.648 88.194 23.9573 88.546 24.192C88.9033 24.4267 89.298 24.544 89.73 24.544C90.0607 24.544 90.3753 24.4693 90.674 24.32C90.9727 24.1707 91.226 23.9733 91.434 23.728ZM98.5903 19.664H96.9103L96.9023 26H95.2383L95.2463 19.664H93.9743V18H95.2463L95.2383 15.488H96.9023L96.9103 18H98.5903V19.664ZM103.866 26V14.8H110.818V16.464H105.53V19.168H109.786V20.832H105.53V24.336H110.818V26H103.866ZM112.321 26V18H113.985V18.968C114.241 18.6533 114.51 18.3973 114.793 18.2C115.081 17.9973 115.422 17.896 115.817 17.896C116.404 17.896 116.924 18.0293 117.377 18.296C117.836 18.5573 118.22 18.9227 118.529 19.392C118.838 18.9173 119.222 18.5493 119.681 18.288C120.145 18.0267 120.662 17.896 121.233 17.896C121.921 17.896 122.526 18.0693 123.049 18.416C123.572 18.7627 123.982 19.224 124.281 19.8C124.58 20.3707 124.729 21 124.729 21.688V26H123.065V21.688C123.065 21.2933 122.988 20.936 122.833 20.616C122.684 20.296 122.473 20.04 122.201 19.848C121.929 19.656 121.606 19.56 121.233 19.56C120.87 19.56 120.545 19.656 120.257 19.848C119.974 20.04 119.753 20.296 119.593 20.616C119.438 20.936 119.361 21.2933 119.361 21.688V26H117.697V21.688C117.697 21.2933 117.617 20.936 117.457 20.616C117.297 20.296 117.076 20.04 116.793 19.848C116.51 19.656 116.185 19.56 115.817 19.56C115.465 19.56 115.15 19.6613 114.873 19.864C114.601 20.0667 114.385 20.3333 114.225 20.664C114.065 20.9947 113.985 21.3573 113.985 21.752V26H112.321ZM132.428 18H134.092V26H132.42L132.356 24.84C132.122 25.2507 131.804 25.5813 131.404 25.832C131.01 26.0827 130.54 26.208 129.996 26.208C129.404 26.208 128.85 26.0987 128.332 25.88C127.82 25.656 127.367 25.3467 126.972 24.952C126.583 24.5573 126.276 24.104 126.052 23.592C125.834 23.0747 125.724 22.52 125.724 21.928C125.724 21.3573 125.831 20.8213 126.044 20.32C126.258 19.8133 126.554 19.3707 126.932 18.992C127.311 18.6133 127.748 18.3173 128.244 18.104C128.746 17.8853 129.282 17.776 129.852 17.776C130.434 17.776 130.946 17.9093 131.388 18.176C131.836 18.4373 132.204 18.7733 132.492 19.184L132.428 18ZM130.036 24.6C130.516 24.6 130.93 24.48 131.276 24.24C131.628 24 131.892 23.6773 132.068 23.272C132.25 22.8667 132.327 22.4187 132.3 21.928C132.268 21.4587 132.143 21.032 131.924 20.648C131.711 20.264 131.426 19.96 131.068 19.736C130.711 19.5067 130.306 19.392 129.852 19.392C129.378 19.392 128.948 19.512 128.564 19.752C128.186 19.992 127.892 20.3147 127.684 20.72C127.476 21.1253 127.386 21.576 127.412 22.072C127.444 22.536 127.583 22.96 127.828 23.344C128.079 23.728 128.396 24.0347 128.78 24.264C129.17 24.488 129.588 24.6 130.036 24.6ZM136.007 18H137.671V26H136.007V18ZM136.847 16.68C136.596 16.68 136.386 16.5973 136.215 16.432C136.044 16.2667 135.959 16.0587 135.959 15.808C135.959 15.5627 136.044 15.3573 136.215 15.192C136.386 15.0213 136.596 14.936 136.847 14.936C137.092 14.936 137.3 15.0213 137.471 15.192C137.642 15.3573 137.727 15.5627 137.727 15.808C137.727 16.0587 137.642 16.2667 137.471 16.432C137.3 16.5973 137.092 16.68 136.847 16.68ZM140.29 26V14H141.946V26H140.29Z" fill="white"/>
<rect x="0.5" y="0.5" width="154" height="39" rx="7.5" stroke="url(#paint0_linear_366_2423)"/>
<defs>
<linearGradient id="paint0_linear_366_2423" x1="-5.31879e-07" y1="20" x2="154.998" y2="22.0731" gradientUnits="userSpaceOnUse">
<stop stop-color="#E9A707"/>
<stop offset="1" stop-color="#F2800D"/>
</linearGradient>
</defs>
</svg>
