<svg width="24" height="24" viewBox="0 0 24 24" fill="none" xmlns="http://www.w3.org/2000/svg">
<path d="M7.83333 7.00008V4.50008C7.83333 4.27907 7.92113 4.06711 8.07741 3.91083C8.23369 3.75455 8.44565 3.66675 8.66667 3.66675H18.6667C18.8877 3.66675 19.0996 3.75455 19.2559 3.91083C19.4122 4.06711 19.5 4.27907 19.5 4.50008V16.1667C19.5 16.3878 19.4122 16.5997 19.2559 16.756C19.0996 16.9123 18.8877 17.0001 18.6667 17.0001H16.1667V19.5001C16.1667 19.9601 15.7917 20.3334 15.3275 20.3334H5.33917C5.22927 20.3341 5.12033 20.313 5.0186 20.2714C4.91687 20.2299 4.82436 20.1686 4.74638 20.0912C4.6684 20.0137 4.60649 19.9216 4.56421 19.8202C4.52193 19.7188 4.50011 19.61 4.5 19.5001L4.5025 7.83342C4.5025 7.37341 4.8775 7.00008 5.34167 7.00008H7.83333ZM6.16917 8.66675L6.16667 18.6667H14.5V8.66675H6.16917ZM9.5 7.00008H16.1667V15.3334H17.8333V5.33341H9.5V7.00008Z" fill="url(#paint0_linear_400_2756)"/>
<rect x="0.5" y="0.5" width="23" height="23" rx="1.5" stroke="#FFFCF5"/>
<defs>
<linearGradient id="paint0_linear_400_2756" x1="4.5" y1="12.0001" x2="19.5023" y2="12.0467" gradientUnits="userSpaceOnUse">
<stop stop-color="#E9A707"/>
<stop offset="1" stop-color="#F2800D"/>
</linearGradient>
</defs>
</svg>
