<svg width="72" height="33" viewBox="0 0 72 33" fill="none" xmlns="http://www.w3.org/2000/svg">
<g clip-path="url(#clip0_291_3705)">
<line x1="14.5" y1="17" x2="25.5" y2="17" stroke="white" stroke-linecap="round"/>
<line x1="19.5" y1="23" x2="19.5" y2="12" stroke="white" stroke-linecap="round"/>
</g>
<path d="M36.84 21V11.2H42.853V12.376H38.016V15.162H41.978V16.338H38.016V19.824H42.853V21H36.84ZM49.6938 10.5H50.8698V21H49.6938V19.81C49.4558 20.2207 49.1361 20.552 48.7348 20.804C48.3334 21.056 47.8621 21.182 47.3208 21.182C46.8121 21.182 46.3361 21.0863 45.8928 20.895C45.4494 20.7037 45.0574 20.44 44.7168 20.104C44.3808 19.7633 44.1171 19.3713 43.9258 18.928C43.7344 18.4847 43.6388 18.0087 43.6388 17.5C43.6388 16.9913 43.7344 16.5153 43.9258 16.072C44.1171 15.624 44.3808 15.232 44.7168 14.896C45.0574 14.5553 45.4494 14.2893 45.8928 14.098C46.3361 13.9067 46.8121 13.811 47.3208 13.811C47.8621 13.811 48.3334 13.937 48.7348 14.189C49.1361 14.441 49.4558 14.7723 49.6938 15.183V10.5ZM47.3347 20.041C47.7968 20.041 48.1958 19.929 48.5318 19.705C48.8724 19.4763 49.1338 19.1683 49.3158 18.781C49.5024 18.3937 49.5958 17.9667 49.5958 17.5C49.5958 17.024 49.5024 16.5947 49.3158 16.212C49.1291 15.8247 48.8654 15.519 48.5248 15.295C48.1888 15.0663 47.7921 14.952 47.3347 14.952C46.8728 14.952 46.4528 15.0663 46.0748 15.295C45.7014 15.5237 45.4028 15.8317 45.1788 16.219C44.9548 16.6017 44.8428 17.0287 44.8428 17.5C44.8428 17.9713 44.9571 18.4007 45.1858 18.788C45.4144 19.1707 45.7178 19.4763 46.0958 19.705C46.4738 19.929 46.8868 20.041 47.3347 20.041ZM52.549 14H53.725V21H52.549V14ZM53.151 12.859C52.9643 12.859 52.808 12.7983 52.682 12.677C52.556 12.5557 52.493 12.404 52.493 12.222C52.493 12.04 52.556 11.8883 52.682 11.767C52.808 11.6457 52.962 11.585 53.144 11.585C53.326 11.585 53.48 11.6457 53.606 11.767C53.732 11.8883 53.795 12.04 53.795 12.222C53.795 12.404 53.732 12.5557 53.606 12.677C53.4847 12.7983 53.333 12.859 53.151 12.859ZM59.0324 15.176H57.4434L57.4364 21H56.2604L56.2674 15.176H55.0634V14H56.2674L56.2604 11.802H57.4364L57.4434 14H59.0324V15.176Z" fill="white"/>
<path d="M8 1H64V-1H8V1ZM71 8V25H73V8H71ZM64 32H8V34H64V32ZM1 25V8H-1V25H1ZM8 32C4.13401 32 1 28.866 1 25H-1C-1 29.9706 3.02944 34 8 34V32ZM71 25C71 28.866 67.866 32 64 32V34C68.9706 34 73 29.9706 73 25H71ZM64 1C67.866 1 71 4.13401 71 8H73C73 3.02944 68.9706 -1 64 -1V1ZM8 -1C3.02944 -1 -1 3.02944 -1 8H1C1 4.13401 4.13401 1 8 1V-1Z" fill="url(#paint0_linear_291_3705)"/>
<defs>
<linearGradient id="paint0_linear_291_3705" x1="-2.47067e-07" y1="16.5" x2="72.0077" y2="17.0423" gradientUnits="userSpaceOnUse">
<stop stop-color="#E9A707"/>
<stop offset="1" stop-color="#F2800D"/>
</linearGradient>
<clipPath id="clip0_291_3705">
<rect width="14" height="14" fill="white" transform="translate(12 9.5)"/>
</clipPath>
</defs>
</svg>
