<svg width="162" height="35" viewBox="0 0 162 35" fill="none" xmlns="http://www.w3.org/2000/svg">
<path d="M0 8C0 3.58172 3.58172 0 8 0H154C158.418 0 162 3.58172 162 8V27C162 31.4183 158.418 35 154 35H8C3.58172 35 0 31.4183 0 27V8Z" fill="url(#paint0_linear_400_3126)"/>
<line x1="14.5" y1="17" x2="25.5" y2="17" stroke="white" stroke-linecap="round"/>
<line x1="19.5" y1="23" x2="19.5" y2="12" stroke="white" stroke-linecap="round"/>
<path d="M44.144 23.208C43.3867 23.208 42.6747 23.0587 42.008 22.76C41.3413 22.456 40.7547 22.04 40.248 21.512C39.7467 20.9787 39.352 20.36 39.064 19.656C38.7813 18.952 38.64 18.2 38.64 17.4C38.64 16.6 38.7813 15.848 39.064 15.144C39.352 14.44 39.7467 13.824 40.248 13.296C40.7547 12.7627 41.3413 12.3467 42.008 12.048C42.6747 11.744 43.3867 11.592 44.144 11.592C45.0507 11.592 45.8853 11.8027 46.648 12.224C47.4107 12.6453 48.0427 13.2053 48.544 13.904L47.352 14.544C46.9787 14.0533 46.5067 13.664 45.936 13.376C45.3707 13.0827 44.7733 12.936 44.144 12.936C43.5627 12.936 43.0187 13.0533 42.512 13.288C42.0107 13.5227 41.5707 13.8453 41.192 14.256C40.8133 14.6667 40.5173 15.1413 40.304 15.68C40.0907 16.2187 39.984 16.792 39.984 17.4C39.984 18.0133 40.0907 18.5893 40.304 19.128C40.5227 19.6667 40.8213 20.1413 41.2 20.552C41.584 20.9627 42.0267 21.2853 42.528 21.52C43.0347 21.7493 43.5733 21.864 44.144 21.864C44.7947 21.864 45.3973 21.7173 45.952 21.424C46.512 21.1253 46.9787 20.736 47.352 20.256L48.544 20.904C48.0427 21.6027 47.4107 22.1627 46.648 22.584C45.8853 23 45.0507 23.208 44.144 23.208ZM50.1163 23V15H51.4603V16C51.7429 15.6267 52.1003 15.3307 52.5323 15.112C52.9643 14.888 53.4336 14.776 53.9403 14.776C54.2496 14.776 54.5483 14.816 54.8363 14.896L54.2923 16.24C54.0736 16.1707 53.8603 16.136 53.6523 16.136C53.2523 16.136 52.8843 16.2347 52.5483 16.432C52.2176 16.624 51.9536 16.8853 51.7563 17.216C51.5589 17.5467 51.4603 17.9147 51.4603 18.32V23H50.1163ZM58.9331 23.208C58.1971 23.208 57.5251 23.0187 56.9171 22.64C56.3145 22.2613 55.8318 21.7547 55.4691 21.12C55.1118 20.48 54.9331 19.7733 54.9331 19C54.9331 18.4133 55.0371 17.8667 55.2451 17.36C55.4531 16.848 55.7385 16.4 56.1011 16.016C56.4691 15.6267 56.8958 15.3227 57.3811 15.104C57.8665 14.8853 58.3838 14.776 58.9331 14.776C59.5358 14.776 60.0878 14.8987 60.5891 15.144C61.0958 15.384 61.5278 15.72 61.8851 16.152C62.2478 16.584 62.5171 17.0853 62.6931 17.656C62.8745 18.2267 62.9411 18.8373 62.8931 19.488H56.3651C56.4291 19.9413 56.5785 20.3467 56.8131 20.704C57.0478 21.056 57.3465 21.336 57.7091 21.544C58.0771 21.752 58.4851 21.8587 58.9331 21.864C59.4131 21.864 59.8478 21.7413 60.2371 21.496C60.6265 21.2453 60.9411 20.904 61.1811 20.472L62.5491 20.792C62.2291 21.5013 61.7465 22.0827 61.1011 22.536C60.4558 22.984 59.7331 23.208 58.9331 23.208ZM56.3251 18.432H61.5411C61.4985 17.984 61.3545 17.576 61.1091 17.208C60.8638 16.8347 60.5518 16.536 60.1731 16.312C59.7945 16.088 59.3811 15.976 58.9331 15.976C58.4851 15.976 58.0745 16.0853 57.7011 16.304C57.3278 16.5227 57.0185 16.8187 56.7731 17.192C56.5331 17.56 56.3838 17.9733 56.3251 18.432ZM70.6264 15H71.9704V23H70.6264L70.5704 21.648C70.3197 22.112 69.973 22.488 69.5304 22.776C69.093 23.064 68.5704 23.208 67.9624 23.208C67.3757 23.208 66.8264 23.0987 66.3144 22.88C65.8024 22.656 65.349 22.3493 64.9544 21.96C64.565 21.5653 64.261 21.112 64.0424 20.6C63.8237 20.088 63.7144 19.536 63.7144 18.944C63.7144 18.3733 63.821 17.8347 64.0344 17.328C64.2477 16.8213 64.5437 16.3787 64.9224 16C65.3064 15.616 65.749 15.3173 66.2504 15.104C66.7517 14.8853 67.2904 14.776 67.8664 14.776C68.4957 14.776 69.0477 14.9253 69.5224 15.224C69.997 15.5173 70.381 15.8987 70.6744 16.368L70.6264 15ZM67.9384 21.904C68.4664 21.904 68.9224 21.776 69.3064 21.52C69.6957 21.2587 69.9944 20.9067 70.2024 20.464C70.4157 20.0213 70.5224 19.5333 70.5224 19C70.5224 18.456 70.4157 17.9653 70.2024 17.528C69.989 17.0853 69.6877 16.736 69.2984 16.48C68.9144 16.2187 68.461 16.088 67.9384 16.088C67.4104 16.088 66.9304 16.2187 66.4984 16.48C66.0664 16.7413 65.7224 17.0933 65.4664 17.536C65.2157 17.9733 65.0904 18.4613 65.0904 19C65.0904 19.5387 65.221 20.0293 65.4824 20.472C65.7437 20.9093 66.0904 21.2587 66.5224 21.52C66.9544 21.776 67.4264 21.904 67.9384 21.904ZM77.7134 16.344H75.8974L75.8894 23H74.5454L74.5534 16.344H73.1774V15H74.5534L74.5454 12.488H75.8894L75.8974 15H77.7134V16.344ZM82.4644 23.208C81.7284 23.208 81.0564 23.0187 80.4484 22.64C79.8457 22.2613 79.363 21.7547 79.0004 21.12C78.643 20.48 78.4644 19.7733 78.4644 19C78.4644 18.4133 78.5684 17.8667 78.7764 17.36C78.9844 16.848 79.2697 16.4 79.6324 16.016C80.0004 15.6267 80.427 15.3227 80.9124 15.104C81.3977 14.8853 81.915 14.776 82.4644 14.776C83.067 14.776 83.619 14.8987 84.1204 15.144C84.627 15.384 85.059 15.72 85.4164 16.152C85.779 16.584 86.0484 17.0853 86.2244 17.656C86.4057 18.2267 86.4724 18.8373 86.4244 19.488H79.8964C79.9604 19.9413 80.1097 20.3467 80.3444 20.704C80.579 21.056 80.8777 21.336 81.2404 21.544C81.6084 21.752 82.0164 21.8587 82.4644 21.864C82.9444 21.864 83.379 21.7413 83.7684 21.496C84.1577 21.2453 84.4724 20.904 84.7124 20.472L86.0804 20.792C85.7604 21.5013 85.2777 22.0827 84.6324 22.536C83.987 22.984 83.2644 23.208 82.4644 23.208ZM79.8564 18.432H85.0724C85.0297 17.984 84.8857 17.576 84.6404 17.208C84.395 16.8347 84.083 16.536 83.7044 16.312C83.3257 16.088 82.9124 15.976 82.4644 15.976C82.0164 15.976 81.6057 16.0853 81.2324 16.304C80.859 16.5227 80.5497 16.8187 80.3044 17.192C80.0644 17.56 79.915 17.9733 79.8564 18.432ZM96.9176 23.208C96.1443 23.208 95.4216 23.0587 94.7496 22.76C94.083 22.456 93.499 22.0373 92.9976 21.504C92.5016 20.9653 92.1123 20.3467 91.8296 19.648C91.547 18.944 91.4056 18.192 91.4056 17.392C91.4056 16.5653 91.5523 15.8 91.8456 15.096C92.1443 14.392 92.5496 13.7787 93.0616 13.256C93.579 12.7333 94.1683 12.328 94.8296 12.04C95.4963 11.7467 96.2003 11.6 96.9416 11.6C97.7843 11.6 98.587 11.7973 99.3496 12.192C100.112 12.5867 100.768 13.1573 101.318 13.904L100.118 14.552C99.707 14.0293 99.219 13.6293 98.6536 13.352C98.0936 13.0747 97.5176 12.936 96.9256 12.936C96.3603 12.936 95.8243 13.0507 95.3176 13.28C94.8163 13.5093 94.371 13.8293 93.9816 14.24C93.5976 14.6507 93.2963 15.1253 93.0776 15.664C92.859 16.2027 92.7496 16.7867 92.7496 17.416C92.7496 18.0293 92.859 18.6053 93.0776 19.144C93.2963 19.6827 93.595 20.1573 93.9736 20.568C94.3576 20.9733 94.803 21.2907 95.3096 21.52C95.8163 21.7493 96.3576 21.864 96.9336 21.864C97.3923 21.864 97.827 21.7867 98.2376 21.632C98.6536 21.4773 99.035 21.2587 99.3816 20.976C99.7336 20.6933 100.032 20.36 100.278 19.976C100.528 19.592 100.718 19.1707 100.846 18.712H98.0856V17.512H102.414C102.408 18.296 102.259 19.032 101.966 19.72C101.678 20.408 101.28 21.0133 100.774 21.536C100.272 22.0587 99.691 22.4693 99.0296 22.768C98.3736 23.0613 97.6696 23.208 96.9176 23.208ZM103.694 23L105.862 11.8H106.894L109.918 19.752L112.934 11.8H113.966L116.142 23H114.774L113.198 14.872L110.358 22.392H109.47L106.63 14.872L105.062 23H103.694ZM121.913 23V11.8H123.257V21.656H128.273V23H121.913ZM130.038 15H131.382V23H130.038V15ZM130.726 13.696C130.513 13.696 130.334 13.6267 130.19 13.488C130.046 13.3493 129.974 13.176 129.974 12.968C129.974 12.76 130.046 12.5867 130.19 12.448C130.334 12.3093 130.51 12.24 130.718 12.24C130.926 12.24 131.102 12.3093 131.246 12.448C131.39 12.5867 131.462 12.76 131.462 12.968C131.462 13.176 131.39 13.3493 131.246 13.488C131.107 13.6267 130.934 13.696 130.726 13.696ZM140.329 18.024V23H138.985V18.32C138.985 17.9147 138.886 17.5467 138.689 17.216C138.492 16.8853 138.228 16.624 137.897 16.432C137.566 16.2347 137.198 16.136 136.793 16.136C136.393 16.136 136.025 16.2347 135.689 16.432C135.358 16.624 135.094 16.8853 134.897 17.216C134.7 17.5467 134.601 17.9147 134.601 18.32V23H133.257V15H134.601V16C134.884 15.6267 135.241 15.3307 135.673 15.112C136.105 14.888 136.574 14.776 137.081 14.776C137.678 14.776 138.222 14.9227 138.713 15.216C139.209 15.504 139.601 15.8933 139.889 16.384C140.182 16.8747 140.329 17.4213 140.329 18.024ZM148.511 23H146.967L144.839 19.328L143.367 21.088V23H142.023V11H143.367V19L146.719 15H148.471L145.751 18.24L148.511 23Z" fill="white"/>
<defs>
<linearGradient id="paint0_linear_400_3126" x1="-5.559e-07" y1="17.5" x2="161.985" y2="20.0879" gradientUnits="userSpaceOnUse">
<stop stop-color="#E9A707"/>
<stop offset="1" stop-color="#F2800D"/>
</linearGradient>
</defs>
</svg>
