<svg width="24" height="24" viewBox="0 0 24 24" fill="none" xmlns="http://www.w3.org/2000/svg">
<path d="M14.653 8.28748L8.28739 14.6531C8.14713 14.7937 8.06836 14.9842 8.06836 15.1828C8.06836 15.3814 8.14713 15.5719 8.28739 15.7125C8.42917 15.8505 8.61921 15.9277 8.81708 15.9277C9.01494 15.9277 9.20498 15.8505 9.34676 15.7125L15.7124 9.34685C15.8417 9.20418 15.9111 9.01727 15.9064 8.8248C15.9016 8.63234 15.8231 8.44907 15.6869 8.31293C15.5508 8.1768 15.3675 8.09823 15.1751 8.09349C14.9826 8.08875 14.7957 8.15821 14.653 8.28748Z" fill="#D1D5DB"/>
<path d="M13.0585 16.2469L10.4053 18.8906C10.0591 19.2412 9.64677 19.5196 9.19213 19.7096C8.73749 19.8996 8.24965 19.9975 7.75691 19.9975C7.26416 19.9975 6.77632 19.8996 6.32169 19.7096C5.86705 19.5196 5.45467 19.2412 5.10847 18.8906C4.40717 18.1876 4.01333 17.2352 4.01333 16.2422C4.01333 15.2492 4.40717 14.2967 5.10847 13.5937L7.75222 10.9406C7.88149 10.7979 7.95095 10.611 7.94621 10.4186C7.94147 10.2261 7.8629 10.0428 7.72677 9.90668C7.59063 9.77055 7.40736 9.69198 7.2149 9.68724C7.02243 9.6825 6.83552 9.75196 6.69285 9.88123L4.03972 12.5344C3.0551 13.519 2.50195 14.8544 2.50195 16.2469C2.50195 17.6393 3.0551 18.9747 4.03972 19.9593C5.02434 20.944 6.35976 21.4971 7.75222 21.4971C9.14468 21.4971 10.4801 20.944 11.4647 19.9593L14.1178 17.3062C14.2581 17.1656 14.3369 16.9751 14.3369 16.7765C14.3369 16.5779 14.2581 16.3875 14.1178 16.2469C14.0489 16.1763 13.9665 16.1202 13.8755 16.0819C13.7846 16.0436 13.6869 16.0239 13.5882 16.0239C13.4895 16.0239 13.3918 16.0436 13.3008 16.0819C13.2098 16.1202 13.1275 16.1763 13.0585 16.2469Z" fill="#D1D5DB"/>
<path d="M19.9594 4.04063C19.4719 3.55306 18.8931 3.1663 18.2561 2.90243C17.6191 2.63856 16.9364 2.50275 16.2469 2.50275C15.5574 2.50275 14.8747 2.63856 14.2377 2.90243C13.6007 3.1663 13.0219 3.55306 12.5344 4.04063L9.88126 6.69375C9.75199 6.83642 9.68253 7.02333 9.68727 7.2158C9.69201 7.40826 9.77058 7.59154 9.90671 7.72767C10.0428 7.8638 10.2261 7.94237 10.4186 7.94711C10.611 7.95185 10.798 7.88239 10.9406 7.75313L13.5938 5.10938C13.94 4.75874 14.3523 4.48035 14.807 4.29034C15.2616 4.10033 15.7494 4.00248 16.2422 4.00248C16.7349 4.00248 17.2228 4.10033 17.6774 4.29034C18.132 4.48035 18.5444 4.75874 18.8906 5.10938C19.5919 5.81237 19.9858 6.76482 19.9858 7.75781C19.9858 8.7508 19.5919 9.70325 18.8906 10.4062L16.2469 13.0594C16.1763 13.1284 16.1202 13.2107 16.0819 13.3017C16.0436 13.3927 16.0239 13.4904 16.0239 13.5891C16.0239 13.6878 16.0436 13.7855 16.0819 13.8764C16.1202 13.9674 16.1763 14.0498 16.2469 14.1188C16.3145 14.19 16.3959 14.2467 16.4862 14.2854C16.5765 14.3241 16.6737 14.3439 16.7719 14.3438C16.8714 14.3436 16.9699 14.3236 17.0617 14.285C17.1534 14.2463 17.2366 14.1898 17.3063 14.1188L19.9594 11.4656C20.9418 10.4798 21.4934 9.14485 21.4934 7.75313C21.4934 6.3614 20.9418 5.02642 19.9594 4.04063Z" fill="#D1D5DB"/>
</svg>
