<svg width="144" height="44" viewBox="0 0 144 44" fill="none" xmlns="http://www.w3.org/2000/svg">
<path d="M39.2517 20.9183L23.0633 4.72996C22.385 4.05163 21.45 3.66663 20.4783 3.66663H7.33332C5.31666 3.66663 3.66666 5.31663 3.66666 7.33329V20.4783C3.66666 21.45 4.05166 22.385 4.74832 23.0633L20.9367 39.2516C22.3667 40.6816 24.695 40.6816 26.125 39.2516L39.27 26.1066C40.7 24.6766 40.7 22.3666 39.2517 20.9183ZM11.9167 14.6666C10.395 14.6666 9.16666 13.4383 9.16666 11.9166C9.16666 10.395 10.395 9.16663 11.9167 9.16663C13.4383 9.16663 14.6667 10.395 14.6667 11.9166C14.6667 13.4383 13.4383 14.6666 11.9167 14.6666Z" fill="url(#paint0_linear_505_1789)"/>
<path d="M18.6607 25.7321H16.8929C16.7366 25.7321 16.5867 25.67 16.4762 25.5595C16.3657 25.449 16.3036 25.2991 16.3036 25.1428C16.3036 24.9865 16.3657 24.8366 16.4762 24.7261C16.5867 24.6156 16.7366 24.5535 16.8929 24.5535H18.6607C18.817 24.5535 18.9669 24.6156 19.0774 24.7261C19.1879 24.8366 19.25 24.9865 19.25 25.1428C19.25 25.2991 19.1879 25.449 19.0774 25.5595C18.9669 25.67 18.817 25.7321 18.6607 25.7321ZM26.3214 20.4285C26.3214 20.5848 26.3835 20.7347 26.494 20.8452C26.6046 20.9557 26.7544 21.0178 26.9107 21.0178H28.6786C28.8349 21.0178 28.9848 20.9557 29.0953 20.8452C29.2058 20.7347 29.2679 20.5848 29.2679 20.4285C29.2679 20.2722 29.2058 20.1224 29.0953 20.0118C28.9848 19.9013 28.8349 19.8392 28.6786 19.8392H26.9107C26.7544 19.8392 26.6046 19.9013 26.494 20.0118C26.3835 20.1224 26.3214 20.2722 26.3214 20.4285ZM21.0179 28.6785V26.9107C21.0179 26.7544 20.9558 26.6045 20.8453 26.494C20.7348 26.3835 20.5849 26.3214 20.4286 26.3214C20.2723 26.3214 20.1224 26.3835 20.0119 26.494C19.9014 26.6045 19.8393 26.7544 19.8393 26.9107V28.6785C19.8393 28.8348 19.9014 28.9847 20.0119 29.0952C20.1224 29.2057 20.2723 29.2678 20.4286 29.2678C20.5849 29.2678 20.7348 29.2057 20.8453 29.0952C20.9558 28.9847 21.0179 28.8348 21.0179 28.6785ZM24.5536 16.8928V18.6607C24.5536 18.817 24.6157 18.9669 24.7262 19.0774C24.8367 19.1879 24.9866 19.25 25.1429 19.25C25.2992 19.25 25.4491 19.1879 25.5596 19.0774C25.6701 18.9669 25.7322 18.817 25.7322 18.6607V16.8928C25.7322 16.7365 25.6701 16.5866 25.5596 16.4761C25.4491 16.3656 25.2992 16.3035 25.1429 16.3035C24.9866 16.3035 24.8367 16.3656 24.7262 16.4761C24.6157 16.5866 24.5536 16.7365 24.5536 16.8928ZM26.5645 23.235L27.3969 24.0674C27.8032 24.5158 28.0215 25.1032 28.0066 25.7081C27.9917 26.313 27.7447 26.889 27.3169 27.3168C26.889 27.7447 26.313 27.9916 25.7082 28.0065C25.1033 28.0214 24.5158 27.8031 24.0674 27.3968L23.2351 26.5645C23.1233 26.4538 22.9724 26.3917 22.8152 26.3917C22.6579 26.3917 22.5071 26.4538 22.3953 26.5645C22.2851 26.6749 22.2232 26.8246 22.2232 26.9807C22.2232 27.1367 22.2851 27.2864 22.3953 27.3968L23.2351 28.2292C23.8973 28.8915 24.7956 29.2635 25.7322 29.2635C26.6688 29.2635 27.567 28.8915 28.2293 28.2292C28.8915 27.5669 29.2636 26.6687 29.2636 25.7321C29.2636 24.7955 28.8915 23.8973 28.2293 23.235L27.3969 22.3953C27.2864 22.2851 27.1368 22.2232 26.9807 22.2232C26.8247 22.2232 26.675 22.2851 26.5645 22.3953C26.4539 22.507 26.3918 22.6579 26.3918 22.8151C26.3918 22.9724 26.4539 23.1233 26.5645 23.235ZM18.1746 18.1745C18.3929 17.9554 18.6523 17.7815 18.938 17.6628C19.2237 17.5442 19.53 17.4831 19.8393 17.4831C20.1486 17.4831 20.4549 17.5442 20.7406 17.6628C21.0263 17.7815 21.2857 17.9554 21.504 18.1745L22.3364 19.0069C22.4481 19.1175 22.599 19.1796 22.7563 19.1796C22.9135 19.1796 23.0644 19.1175 23.1761 19.0069C23.2843 18.8938 23.3449 18.7435 23.3456 18.587C23.3453 18.4326 23.2845 18.2845 23.1761 18.1745L22.3364 17.3422C21.6741 16.6799 20.7759 16.3078 19.8393 16.3078C18.9027 16.3078 18.0045 16.6799 17.3422 17.3422C16.6799 18.0044 16.3079 18.9027 16.3079 19.8392C16.3079 20.7758 16.6799 21.6741 17.3422 22.3363L18.1746 23.1761C18.285 23.2863 18.4347 23.3482 18.5908 23.3482C18.7468 23.3482 18.8965 23.2863 19.0069 23.1761C19.1176 23.0644 19.1797 22.9135 19.1797 22.7562C19.1797 22.599 19.1176 22.4481 19.0069 22.3363L18.1746 21.504C17.9554 21.2857 17.7815 21.0262 17.6629 20.7406C17.5442 20.4549 17.4831 20.1486 17.4831 19.8392C17.4831 19.5299 17.5442 19.2236 17.6629 18.9379C17.7815 18.6523 17.9554 18.3928 18.1746 18.1745Z" fill="white"/>
<path d="M58.26 29.7C57.1 29.7 56.06 29.52 55.14 29.16C54.22 28.8 53.4333 28.2933 52.78 27.64C52.14 26.9867 51.6533 26.2133 51.32 25.32C50.9867 24.4267 50.82 23.46 50.82 22.42C50.82 21.3667 51 20.4 51.36 19.52C51.7333 18.6267 52.2667 17.8533 52.96 17.2C53.6533 16.5467 54.4667 16.04 55.4 15.68C56.3467 15.32 57.3933 15.14 58.54 15.14C59.3267 15.14 60.0667 15.24 60.76 15.44C61.4667 15.64 62.1 15.9133 62.66 16.26C63.22 16.6067 63.7 16.9933 64.1 17.42L61.74 19.94C61.4467 19.66 61.1333 19.42 60.8 19.22C60.48 19.02 60.1267 18.86 59.74 18.74C59.3667 18.62 58.9467 18.56 58.48 18.56C57.96 18.56 57.48 18.66 57.04 18.86C56.6133 19.0467 56.24 19.3133 55.92 19.66C55.6 19.9933 55.3467 20.4 55.16 20.88C54.9867 21.3467 54.9 21.86 54.9 22.42C54.9 22.9667 54.9933 23.48 55.18 23.96C55.3667 24.4267 55.6267 24.8333 55.96 25.18C56.2933 25.5267 56.6867 25.8 57.14 26C57.6067 26.1867 58.1067 26.28 58.64 26.28C59.0133 26.28 59.36 26.22 59.68 26.1C60 25.98 60.2733 25.82 60.5 25.62C60.74 25.4067 60.9267 25.16 61.06 24.88C61.1933 24.5867 61.26 24.2733 61.26 23.94V23.38L61.78 24.22H58.1V21.34H64.86C64.8733 21.4867 64.8867 21.7133 64.9 22.02C64.9267 22.3133 64.94 22.6067 64.94 22.9C64.9533 23.1933 64.96 23.4 64.96 23.52C64.96 24.4133 64.7933 25.24 64.46 26C64.1267 26.76 63.66 27.4133 63.06 27.96C62.46 28.5067 61.7533 28.9333 60.94 29.24C60.1267 29.5467 59.2333 29.7 58.26 29.7ZM69.2217 29.5V15.5H72.6817L77.7817 23.8L75.0817 23.78L80.2417 15.5H83.5817V29.5H79.7617V25.76C79.7617 24.56 79.7884 23.48 79.8417 22.52C79.9084 21.56 80.0151 20.6067 80.1617 19.66L80.6017 20.84L77.0217 26.38H75.7017L72.2017 20.84L72.6417 19.66C72.7884 20.5533 72.8884 21.4733 72.9417 22.42C73.0084 23.3533 73.0417 24.4667 73.0417 25.76V29.5H69.2217ZM88.4575 29.5V14.7H92.1775V29.5H88.4575ZM96.92 29.5V18.84H100.64V29.5H96.92ZM98.78 16.82C98.1 16.82 97.5733 16.6667 97.2 16.36C96.8267 16.04 96.64 15.5933 96.64 15.02C96.64 14.4867 96.8267 14.0533 97.2 13.72C97.5867 13.3733 98.1133 13.2 98.78 13.2C99.4467 13.2 99.9667 13.36 100.34 13.68C100.727 13.9867 100.92 14.4333 100.92 15.02C100.92 15.5533 100.727 15.9867 100.34 16.32C99.9533 16.6533 99.4333 16.82 98.78 16.82ZM105.358 29.5V18.84H108.838L108.998 21L108.238 21.24C108.371 20.7333 108.631 20.2867 109.018 19.9C109.404 19.5 109.864 19.1867 110.398 18.96C110.931 18.7333 111.491 18.62 112.078 18.62C112.878 18.62 113.551 18.7867 114.098 19.12C114.658 19.44 115.078 19.9267 115.358 20.58C115.651 21.22 115.798 22.0067 115.798 22.94V29.5H112.078V23.24C112.078 22.8933 112.024 22.6067 111.918 22.38C111.811 22.14 111.651 21.96 111.438 21.84C111.224 21.72 110.971 21.6667 110.678 21.68C110.451 21.68 110.238 21.7133 110.038 21.78C109.851 21.8467 109.684 21.9533 109.538 22.1C109.391 22.2333 109.278 22.3867 109.198 22.56C109.131 22.7333 109.098 22.9267 109.098 23.14V29.5H107.238C106.784 29.5 106.398 29.5 106.078 29.5C105.771 29.5 105.531 29.5 105.358 29.5ZM123.864 26.46L122.184 23.98L127.124 18.84H131.984L123.864 26.46ZM120.224 29.5V14.7H123.964V29.5H120.224ZM127.484 29.5L123.844 24.54L126.464 22.62L131.784 29.5H127.484ZM138.613 29.7C137.507 29.7 136.533 29.5267 135.693 29.18C134.853 28.8333 134.2 28.3867 133.733 27.84L135.913 25.96C136.34 26.3467 136.82 26.6333 137.353 26.82C137.9 27.0067 138.38 27.1 138.793 27.1C138.94 27.1 139.073 27.0867 139.193 27.06C139.313 27.0333 139.407 26.9933 139.473 26.94C139.553 26.8733 139.613 26.8067 139.653 26.74C139.707 26.66 139.733 26.5733 139.733 26.48C139.733 26.2533 139.62 26.08 139.393 25.96C139.273 25.9067 139.073 25.84 138.793 25.76C138.527 25.6667 138.167 25.5667 137.713 25.46C137.153 25.3133 136.653 25.14 136.213 24.94C135.773 24.7267 135.4 24.48 135.093 24.2C134.8 23.92 134.567 23.6 134.393 23.24C134.233 22.8667 134.153 22.46 134.153 22.02C134.153 21.4867 134.273 21.0133 134.513 20.6C134.753 20.1867 135.087 19.8333 135.513 19.54C135.94 19.2333 136.42 19.0067 136.953 18.86C137.487 18.7 138.033 18.62 138.593 18.62C139.22 18.62 139.807 18.6867 140.353 18.82C140.913 18.94 141.433 19.12 141.913 19.36C142.407 19.5867 142.847 19.8667 143.233 20.2L141.313 22.32C141.087 22.12 140.82 21.9333 140.513 21.76C140.22 21.5867 139.913 21.4467 139.593 21.34C139.273 21.22 138.973 21.16 138.693 21.16C138.52 21.16 138.373 21.1733 138.253 21.2C138.133 21.2267 138.033 21.2667 137.953 21.32C137.873 21.3733 137.813 21.44 137.773 21.52C137.733 21.6 137.713 21.6867 137.713 21.78C137.713 21.9 137.747 22.0133 137.813 22.12C137.88 22.2267 137.987 22.3133 138.133 22.38C138.253 22.4467 138.453 22.5333 138.733 22.64C139.027 22.7333 139.447 22.8533 139.993 23C140.607 23.1733 141.14 23.3733 141.593 23.6C142.047 23.8267 142.413 24.0867 142.693 24.38C142.893 24.6067 143.047 24.86 143.153 25.14C143.26 25.4067 143.313 25.7067 143.313 26.04C143.313 26.7467 143.107 27.38 142.693 27.94C142.293 28.4867 141.74 28.92 141.033 29.24C140.327 29.5467 139.52 29.7 138.613 29.7Z" fill="white"/>
<defs>
<linearGradient id="paint0_linear_505_1789" x1="3.66666" y1="21.9954" x2="40.3458" y2="22.122" gradientUnits="userSpaceOnUse">
<stop stop-color="#E9A707"/>
<stop offset="1" stop-color="#F2800D"/>
</linearGradient>
</defs>
</svg>
