<svg width="18" height="18" viewBox="0 0 18 18" fill="none" xmlns="http://www.w3.org/2000/svg">
<path d="M9.84375 9C9.84375 9.16688 9.79427 9.33001 9.70155 9.46876C9.60884 9.60752 9.47706 9.71566 9.32289 9.77952C9.16871 9.84339 8.99906 9.8601 8.83539 9.82754C8.67172 9.79498 8.52138 9.71462 8.40338 9.59662C8.28538 9.47862 8.20502 9.32828 8.17246 9.16461C8.13991 9.00094 8.15662 8.83129 8.22048 8.67711C8.28434 8.52294 8.39248 8.39116 8.53124 8.29845C8.66999 8.20574 8.83312 8.15625 9 8.15625C9.22378 8.15625 9.43839 8.24515 9.59662 8.40338C9.75486 8.56161 9.84375 8.77622 9.84375 9ZM9 5.34375C9.16688 5.34375 9.33001 5.29427 9.46876 5.20155C9.60752 5.10884 9.71566 4.97706 9.77952 4.82289C9.84338 4.66871 9.86009 4.49906 9.82754 4.33539C9.79498 4.17172 9.71462 4.02138 9.59662 3.90338C9.47862 3.78538 9.32828 3.70502 9.16461 3.67246C9.00094 3.63991 8.83129 3.65662 8.67711 3.72048C8.52294 3.78434 8.39116 3.89248 8.29845 4.03124C8.20574 4.16999 8.15625 4.33312 8.15625 4.5C8.15625 4.72378 8.24515 4.93839 8.40338 5.09662C8.56161 5.25486 8.77622 5.34375 9 5.34375ZM9 12.6563C8.83312 12.6563 8.66999 12.7057 8.53124 12.7984C8.39248 12.8912 8.28434 13.0229 8.22048 13.1771C8.15662 13.3313 8.13991 13.5009 8.17246 13.6646C8.20502 13.8283 8.28538 13.9786 8.40338 14.0966C8.52138 14.2146 8.67172 14.295 8.83539 14.3275C8.99906 14.3601 9.16871 14.3434 9.32289 14.2795C9.47706 14.2157 9.60884 14.1075 9.70155 13.9688C9.79427 13.83 9.84375 13.6669 9.84375 13.5C9.84375 13.2762 9.75486 13.0616 9.59662 12.9034C9.43839 12.7451 9.22378 12.6563 9 12.6563Z" fill="#323232"/>
</svg>
