<svg width="708" height="62" viewBox="0 0 708 62" fill="none" xmlns="http://www.w3.org/2000/svg">
<rect width="708" height="62" rx="12" fill="url(#paint0_linear_360_2358)"/>
<path d="M311.47 39.286C310.429 39.286 309.45 39.0807 308.533 38.67C307.616 38.252 306.81 37.6763 306.113 36.943C305.416 36.2097 304.87 35.3627 304.474 34.402C304.078 33.434 303.88 32.4 303.88 31.3C303.88 30.2 304.078 29.1697 304.474 28.209C304.87 27.241 305.416 26.3903 306.113 25.657C306.81 24.9237 307.616 24.3517 308.533 23.941C309.45 23.523 310.429 23.314 311.47 23.314C312.519 23.314 313.501 23.523 314.418 23.941C315.335 24.3517 316.141 24.9237 316.838 25.657C317.535 26.3903 318.077 27.241 318.466 28.209C318.862 29.1697 319.06 30.2 319.06 31.3C319.06 32.4 318.862 33.434 318.466 34.402C318.077 35.3627 317.535 36.2097 316.838 36.943C316.141 37.6763 315.335 38.252 314.418 38.67C313.501 39.0807 312.519 39.286 311.47 39.286ZM311.47 36.998C312.203 36.998 312.889 36.8477 313.527 36.547C314.165 36.2463 314.726 35.8357 315.21 35.315C315.701 34.787 316.083 34.182 316.354 33.5C316.633 32.8107 316.772 32.0773 316.772 31.3C316.772 30.5227 316.633 29.7893 316.354 29.1C316.083 28.4107 315.701 27.8057 315.21 27.285C314.726 26.757 314.165 26.3463 313.527 26.053C312.889 25.7523 312.203 25.602 311.47 25.602C310.737 25.602 310.051 25.7523 309.413 26.053C308.775 26.3537 308.21 26.768 307.719 27.296C307.235 27.8167 306.854 28.4217 306.575 29.111C306.304 29.793 306.168 30.5227 306.168 31.3C306.168 32.0847 306.304 32.8217 306.575 33.511C306.854 34.193 307.235 34.798 307.719 35.326C308.21 35.8467 308.775 36.2573 309.413 36.558C310.051 36.8513 310.737 36.998 311.47 36.998ZM323.538 44.5H321.25V28H323.538V29.617C323.904 29.0523 324.374 28.594 324.946 28.242C325.518 27.89 326.192 27.714 326.97 27.714C327.769 27.714 328.517 27.8643 329.214 28.165C329.918 28.4657 330.534 28.8837 331.062 29.419C331.59 29.947 332.004 30.5593 332.305 31.256C332.605 31.9527 332.756 32.7007 332.756 33.5C332.756 34.2993 332.605 35.051 332.305 35.755C332.004 36.459 331.59 37.0787 331.062 37.614C330.534 38.142 329.918 38.5563 329.214 38.857C328.517 39.1577 327.769 39.308 326.97 39.308C326.192 39.308 325.518 39.132 324.946 38.78C324.374 38.4207 323.904 37.9623 323.538 37.405V44.5ZM326.948 29.925C326.31 29.925 325.749 30.0863 325.265 30.409C324.781 30.7317 324.403 31.1643 324.132 31.707C323.86 32.2423 323.725 32.84 323.725 33.5C323.725 34.16 323.86 34.7613 324.132 35.304C324.403 35.8467 324.781 36.2793 325.265 36.602C325.749 36.9247 326.31 37.086 326.948 37.086C327.578 37.086 328.158 36.9283 328.686 36.613C329.214 36.2903 329.635 35.8577 329.951 35.315C330.266 34.7723 330.424 34.1673 330.424 33.5C330.424 32.8473 330.266 32.2497 329.951 31.707C329.643 31.1643 329.225 30.7317 328.697 30.409C328.169 30.0863 327.586 29.925 326.948 29.925ZM339.582 39.286C338.57 39.286 337.646 39.0257 336.81 38.505C335.981 37.9843 335.318 37.2877 334.819 36.415C334.328 35.535 334.082 34.5633 334.082 33.5C334.082 32.6933 334.225 31.9417 334.511 31.245C334.797 30.541 335.189 29.925 335.688 29.397C336.194 28.8617 336.781 28.4437 337.448 28.143C338.115 27.8423 338.827 27.692 339.582 27.692C340.425 27.692 341.199 27.868 341.903 28.22C342.607 28.5647 343.208 29.045 343.707 29.661C344.206 30.2697 344.572 30.9737 344.807 31.773C345.042 32.565 345.111 33.4083 345.016 34.303H336.535C336.63 34.809 336.814 35.2673 337.085 35.678C337.364 36.0813 337.716 36.4003 338.141 36.635C338.574 36.8697 339.054 36.9907 339.582 36.998C340.139 36.998 340.645 36.8587 341.1 36.58C341.562 36.3013 341.94 35.9163 342.233 35.425L344.554 35.964C344.114 36.9393 343.45 37.7387 342.563 38.362C341.676 38.978 340.682 39.286 339.582 39.286ZM336.458 32.554H342.706C342.633 32.026 342.446 31.5493 342.145 31.124C341.852 30.6913 341.481 30.3503 341.034 30.101C340.594 29.8443 340.11 29.716 339.582 29.716C339.061 29.716 338.577 29.8407 338.13 30.09C337.69 30.3393 337.323 30.6803 337.03 31.113C336.744 31.5383 336.553 32.0187 336.458 32.554ZM357.067 33.236V39H354.779V33.28C354.779 32.6567 354.647 32.092 354.383 31.586C354.126 31.0727 353.771 30.6657 353.316 30.365C352.869 30.057 352.359 29.903 351.787 29.903C351.215 29.903 350.713 30.057 350.28 30.365C349.855 30.6657 349.521 31.0727 349.279 31.586C349.044 32.092 348.927 32.6567 348.927 33.28V39H346.639V28H348.927V29.485C349.308 28.9277 349.77 28.4913 350.313 28.176C350.856 27.8533 351.468 27.692 352.15 27.692C353.14 27.692 353.998 27.945 354.724 28.451C355.457 28.957 356.029 29.628 356.44 30.464C356.851 31.3 357.06 32.224 357.067 33.236ZM364.777 39V23.6H367.065V36.712H373.698V39H364.777ZM376.121 28H378.409V39H376.121V28ZM377.276 26.185C376.931 26.185 376.641 26.0713 376.407 25.844C376.172 25.6167 376.055 25.3307 376.055 24.986C376.055 24.6487 376.172 24.3663 376.407 24.139C376.641 23.9043 376.931 23.787 377.276 23.787C377.613 23.787 377.899 23.9043 378.134 24.139C378.368 24.3663 378.486 24.6487 378.486 24.986C378.486 25.3307 378.368 25.6167 378.134 25.844C377.899 26.0713 377.613 26.185 377.276 26.185ZM392.001 33.236V39H389.713V33.28C389.713 32.6567 389.581 32.092 389.317 31.586C389.06 31.0727 388.704 30.6657 388.25 30.365C387.802 30.057 387.293 29.903 386.721 29.903C386.149 29.903 385.646 30.057 385.214 30.365C384.788 30.6657 384.455 31.0727 384.213 31.586C383.978 32.092 383.861 32.6567 383.861 33.28V39H381.573V28H383.861V29.485C384.242 28.9277 384.704 28.4913 385.247 28.176C385.789 27.8533 386.402 27.692 387.084 27.692C388.074 27.692 388.932 27.945 389.658 28.451C390.391 28.957 390.963 29.628 391.374 30.464C391.784 31.3 391.993 32.224 392.001 33.236ZM403.951 39H401.311L398.605 34.336L396.834 36.448V39H394.557V22.5H396.834V32.895L400.937 28H403.929L400.178 32.477L403.951 39Z" fill="white"/>
<defs>
<linearGradient id="paint0_linear_360_2358" x1="-2.42949e-06" y1="31" x2="707.018" y2="58.8677" gradientUnits="userSpaceOnUse">
<stop stop-color="#E9A707"/>
<stop offset="1" stop-color="#F2800D"/>
</linearGradient>
</defs>
</svg>
