<svg width="24" height="24" viewBox="0 0 24 24" fill="none" xmlns="http://www.w3.org/2000/svg">
<path d="M17.6015 8.76855C17.1956 8.52902 16.6679 8.52902 16.2214 8.76855L13.0553 10.6049L10.9041 11.8026L7.73801 13.6389C7.33211 13.8784 6.80443 13.8784 6.35794 13.6389L3.84133 12.2017C3.43542 11.9622 3.15129 11.5231 3.15129 11.044V8.20966C3.15129 7.73061 3.39484 7.29148 3.84133 7.05196L6.31735 5.65473C6.72325 5.41521 7.25092 5.41521 7.69742 5.65473L10.1735 7.05196C10.5793 7.29148 10.8635 7.73061 10.8635 8.20966V10.046L13.0148 8.80847V6.97211C13.0148 6.49307 12.7712 6.05394 12.3247 5.81442L7.73801 3.17964C7.33211 2.94012 6.80443 2.94012 6.35794 3.17964L1.69004 5.81442C1.24354 6.05394 1 6.49307 1 6.97211V12.2816C1 12.7606 1.24354 13.1997 1.69004 13.4393L6.35794 16.0741C6.76384 16.3136 7.29151 16.3136 7.73801 16.0741L10.9041 14.2776L13.0553 13.0401L16.2214 11.2436C16.6273 11.0041 17.155 11.0041 17.6015 11.2436L20.0775 12.6409C20.4834 12.8804 20.7675 13.3195 20.7675 13.7986V16.633C20.7675 17.112 20.524 17.5511 20.0775 17.7907L17.6015 19.2278C17.1956 19.4673 16.6679 19.4673 16.2214 19.2278L13.7454 17.8305C13.3395 17.5911 13.0553 17.1519 13.0553 16.6728V14.8365L10.9041 16.0741V17.9104C10.9041 18.3895 11.1476 18.8286 11.5941 19.0681L16.262 21.7028C16.6679 21.9424 17.1956 21.9424 17.6421 21.7028L22.31 19.0681C22.7159 18.8286 23 18.3895 23 17.9104V12.6009C23 12.1219 22.7565 11.6828 22.31 11.4432L17.6015 8.76855Z" fill="#8247E5"/>
</svg>
