<svg width="74" height="35" viewBox="0 0 74 35" fill="none" xmlns="http://www.w3.org/2000/svg">
<path d="M0 8C0 3.58172 3.58172 0 8 0H66C70.4183 0 74 3.58172 74 8V27C74 31.4183 70.4183 35 66 35H8C3.58172 35 0 31.4183 0 27V8Z" fill="url(#paint0_linear_374_2560)"/>
<path d="M12.96 23V11.8H16.656C17.2587 11.8 17.8 11.9467 18.28 12.24C18.7653 12.5333 19.1493 12.9307 19.432 13.432C19.72 13.928 19.864 14.4827 19.864 15.096C19.864 15.72 19.7173 16.2827 19.424 16.784C19.136 17.28 18.7467 17.6747 18.256 17.968C17.7707 18.256 17.2373 18.4 16.656 18.4H14.304V23H12.96ZM14.304 17.056H16.536C16.8987 17.056 17.2293 16.968 17.528 16.792C17.832 16.6107 18.072 16.368 18.248 16.064C18.4293 15.7547 18.52 15.408 18.52 15.024C18.52 14.6347 18.4293 14.288 18.248 13.984C18.072 13.6747 17.832 13.432 17.528 13.256C17.2293 13.0747 16.8987 12.984 16.536 12.984H14.304V17.056ZM21.0225 19.24V15H22.3665V19.208C22.3665 19.704 22.4705 20.1573 22.6785 20.568C22.8865 20.9733 23.1692 21.2987 23.5265 21.544C23.8838 21.784 24.2865 21.904 24.7345 21.904C25.1825 21.904 25.5772 21.784 25.9185 21.544C26.2652 21.2987 26.5345 20.9733 26.7265 20.568C26.9238 20.1573 27.0225 19.704 27.0225 19.208V15H28.3665V23H27.0225V21.76C26.7345 22.208 26.3798 22.5627 25.9585 22.824C25.5372 23.0853 25.0652 23.216 24.5425 23.216C23.8438 23.216 23.2305 23.0347 22.7025 22.672C22.1798 22.3093 21.7718 21.8267 21.4785 21.224C21.1852 20.6213 21.0332 19.96 21.0225 19.24ZM34.3361 14.776C35.1148 14.776 35.8215 14.9653 36.4561 15.344C37.0961 15.7227 37.6055 16.232 37.9841 16.872C38.3628 17.5067 38.5521 18.2133 38.5521 18.992C38.5521 19.5733 38.4428 20.12 38.2241 20.632C38.0055 21.1387 37.7015 21.5867 37.3121 21.976C36.9281 22.36 36.4801 22.6613 35.9681 22.88C35.4615 23.0987 34.9175 23.208 34.3361 23.208C33.7175 23.208 33.1788 23.064 32.7201 22.776C32.2668 22.4827 31.9041 22.1013 31.6321 21.632V23H30.2881V11H31.6321V16.352C31.9041 15.8827 32.2668 15.504 32.7201 15.216C33.1788 14.9227 33.7175 14.776 34.3361 14.776ZM34.3201 21.896C34.8481 21.896 35.3281 21.7653 35.7601 21.504C36.1921 21.2427 36.5361 20.8933 36.7921 20.456C37.0481 20.0133 37.1761 19.5253 37.1761 18.992C37.1761 18.448 37.0455 17.9573 36.7841 17.52C36.5228 17.0773 36.1761 16.728 35.7441 16.472C35.3121 16.2107 34.8375 16.08 34.3201 16.08C33.7975 16.08 33.3415 16.2107 32.9521 16.472C32.5681 16.7333 32.2695 17.0853 32.0561 17.528C31.8481 17.9707 31.7441 18.4587 31.7441 18.992C31.7441 19.5307 31.8481 20.0213 32.0561 20.464C32.2695 20.9013 32.5708 21.2507 32.9601 21.512C33.3495 21.768 33.8028 21.896 34.3201 21.896ZM39.9866 23V11H41.3226V23H39.9866ZM43.3819 15H44.7259V23H43.3819V15ZM44.0619 13.536C43.8539 13.536 43.6779 13.4667 43.5339 13.328C43.3899 13.1893 43.3179 13.016 43.3179 12.808C43.3179 12.6 43.3899 12.4267 43.5339 12.288C43.6779 12.1493 43.8539 12.08 44.0619 12.08C44.2699 12.08 44.4459 12.1493 44.5899 12.288C44.7339 12.4267 44.8059 12.6 44.8059 12.808C44.8059 13.016 44.7339 13.1893 44.5899 13.328C44.4459 13.4667 44.2699 13.536 44.0619 13.536ZM49.5269 23.152C49.0949 23.136 48.6735 23.056 48.2629 22.912C47.8575 22.7627 47.5002 22.5627 47.1909 22.312C46.8869 22.056 46.6655 21.7627 46.5269 21.432L47.6789 20.936C47.7589 21.1173 47.9029 21.288 48.1109 21.448C48.3189 21.608 48.5589 21.736 48.8309 21.832C49.1029 21.928 49.3775 21.976 49.6549 21.976C49.9482 21.976 50.2229 21.9307 50.4789 21.84C50.7349 21.7493 50.9429 21.616 51.1029 21.44C51.2682 21.2587 51.3509 21.0427 51.3509 20.792C51.3509 20.5253 51.2602 20.3173 51.0789 20.168C50.9029 20.0133 50.6789 19.8933 50.4069 19.808C50.1402 19.7173 49.8682 19.632 49.5909 19.552C49.0415 19.4133 48.5509 19.248 48.1189 19.056C47.6869 18.8587 47.3455 18.6107 47.0949 18.312C46.8495 18.008 46.7269 17.6213 46.7269 17.152C46.7269 16.656 46.8629 16.2267 47.1349 15.864C47.4122 15.5013 47.7749 15.2213 48.2229 15.024C48.6709 14.8267 49.1509 14.728 49.6629 14.728C50.3082 14.728 50.8975 14.8667 51.4309 15.144C51.9642 15.4213 52.3615 15.7973 52.6229 16.272L51.5429 16.904C51.4522 16.712 51.3135 16.544 51.1269 16.4C50.9402 16.2507 50.7269 16.1333 50.4869 16.048C50.2469 15.9627 50.0015 15.9173 49.7509 15.912C49.4415 15.9013 49.1509 15.9413 48.8789 16.032C48.6122 16.1227 48.3962 16.2613 48.2309 16.448C48.0709 16.6293 47.9909 16.856 47.9909 17.128C47.9909 17.3947 48.0762 17.5973 48.2469 17.736C48.4229 17.8747 48.6495 17.9867 48.9269 18.072C49.2095 18.152 49.5162 18.2453 49.8469 18.352C50.3322 18.5067 50.7855 18.6853 51.2069 18.888C51.6282 19.0907 51.9669 19.344 52.2229 19.648C52.4842 19.952 52.6122 20.328 52.6069 20.776C52.6069 21.2667 52.4602 21.696 52.1669 22.064C51.8735 22.4267 51.4922 22.704 51.0229 22.896C50.5589 23.088 50.0602 23.1733 49.5269 23.152ZM61.2774 18.752V23H59.9334V18.784C59.9334 18.288 59.8294 17.8347 59.6214 17.424C59.4187 17.0133 59.1414 16.688 58.7894 16.448C58.4427 16.208 58.0587 16.088 57.6374 16.088C57.1947 16.088 56.8054 16.208 56.4694 16.448C56.1387 16.688 55.88 17.0133 55.6934 17.424C55.512 17.8347 55.4214 18.288 55.4214 18.784V23H54.0694V11H55.4134V16.12C55.664 15.6507 55.9894 15.312 56.3894 15.104C56.7894 14.8907 57.2427 14.784 57.7494 14.784C58.448 14.784 59.0587 14.9653 59.5814 15.328C60.1094 15.6907 60.52 16.1733 60.8134 16.776C61.112 17.3787 61.2667 18.0373 61.2774 18.752Z" fill="white"/>
<defs>
<linearGradient id="paint0_linear_374_2560" x1="-2.5393e-07" y1="17.5" x2="74.0082" y2="18.0401" gradientUnits="userSpaceOnUse">
<stop stop-color="#E9A707"/>
<stop offset="1" stop-color="#F2800D"/>
</linearGradient>
</defs>
</svg>
