<svg width="56" height="33" viewBox="0 0 56 33" fill="none" xmlns="http://www.w3.org/2000/svg">
<path d="M0 8C0 3.58172 3.58172 0 8 0H48C52.4183 0 56 3.58172 56 8V25C56 29.4183 52.4183 33 48 33H8C3.58172 33 0 29.4183 0 25V8Z" fill="url(#paint0_linear_291_3768)"/>
<path d="M16.291 21.182C15.7637 21.182 15.255 21.1003 14.765 20.937C14.275 20.769 13.8457 20.531 13.477 20.223C13.113 19.915 12.854 19.5487 12.7 19.124L13.799 18.711C13.8923 18.9723 14.065 19.201 14.317 19.397C14.5737 19.5883 14.8747 19.7377 15.22 19.845C15.5653 19.9523 15.9223 20.006 16.291 20.006C16.711 20.006 17.1007 19.9383 17.46 19.803C17.824 19.663 18.118 19.4693 18.342 19.222C18.566 18.9747 18.678 18.6853 18.678 18.354C18.678 18.0133 18.5613 17.7357 18.328 17.521C18.0947 17.3017 17.796 17.129 17.432 17.003C17.068 16.8723 16.6877 16.772 16.291 16.702C15.6143 16.59 15.0077 16.4313 14.471 16.226C13.939 16.016 13.5167 15.7243 13.204 15.351C12.896 14.9777 12.742 14.4853 12.742 13.874C12.742 13.3047 12.9053 12.8077 13.232 12.383C13.5633 11.9583 13.9997 11.6293 14.541 11.396C15.0823 11.1627 15.6657 11.046 16.291 11.046C16.809 11.046 17.3107 11.1277 17.796 11.291C18.286 11.4497 18.7177 11.683 19.091 11.991C19.4643 12.299 19.7327 12.6747 19.896 13.118L18.783 13.524C18.6897 13.258 18.5147 13.0293 18.258 12.838C18.006 12.642 17.7073 12.4927 17.362 12.39C17.0213 12.2827 16.6643 12.229 16.291 12.229C15.8757 12.2243 15.4883 12.292 15.129 12.432C14.7697 12.572 14.478 12.7657 14.254 13.013C14.03 13.2603 13.918 13.5473 13.918 13.874C13.918 14.266 14.0207 14.567 14.226 14.777C14.436 14.9823 14.7207 15.1363 15.08 15.239C15.4393 15.3417 15.843 15.4327 16.291 15.512C16.9257 15.6193 17.5137 15.7897 18.055 16.023C18.5963 16.2517 19.0303 16.5573 19.357 16.94C19.6883 17.3227 19.854 17.794 19.854 18.354C19.854 18.9233 19.6883 19.4203 19.357 19.845C19.0303 20.2697 18.5963 20.5987 18.055 20.832C17.5137 21.0653 16.9257 21.182 16.291 21.182ZM27.0216 14H28.1976V21H27.0146L26.9726 19.817C26.7532 20.223 26.4499 20.552 26.0626 20.804C25.6799 21.056 25.2249 21.182 24.6976 21.182C24.1796 21.182 23.6966 21.0863 23.2486 20.895C22.8006 20.699 22.4039 20.4307 22.0586 20.09C21.7179 19.7447 21.4519 19.348 21.2606 18.9C21.0692 18.452 20.9736 17.969 20.9736 17.451C20.9736 16.9517 21.0669 16.4803 21.2536 16.037C21.4402 15.5937 21.6992 15.2063 22.0306 14.875C22.3666 14.539 22.7539 14.2777 23.1926 14.091C23.6312 13.8997 24.1002 13.804 24.5996 13.804C25.1549 13.804 25.6402 13.9347 26.0556 14.196C26.4756 14.4527 26.8116 14.7863 27.0636 15.197L27.0216 14ZM24.7256 20.041C25.1922 20.041 25.5936 19.9243 25.9296 19.691C26.2656 19.4577 26.5199 19.145 26.6926 18.753C26.8699 18.361 26.9492 17.927 26.9306 17.451C26.9119 16.9843 26.8022 16.562 26.6016 16.184C26.4009 15.806 26.1302 15.5073 25.7896 15.288C25.4489 15.064 25.0522 14.952 24.5996 14.952C24.1376 14.952 23.7176 15.0687 23.3396 15.302C22.9616 15.5353 22.6652 15.848 22.4506 16.24C22.2406 16.632 22.1449 17.0683 22.1636 17.549C22.1869 18.011 22.3176 18.431 22.5556 18.809C22.7936 19.187 23.1016 19.488 23.4796 19.712C23.8622 19.9313 24.2776 20.041 24.7256 20.041ZM33.3238 21H31.8188L29.2638 13.986H30.5168L32.5678 19.635L34.6188 13.986H35.8718L33.3238 21ZM39.7364 21.182C39.0924 21.182 38.5044 21.0163 37.9724 20.685C37.4451 20.3537 37.0227 19.9103 36.7054 19.355C36.3927 18.795 36.2364 18.1767 36.2364 17.5C36.2364 16.9867 36.3274 16.5083 36.5094 16.065C36.6914 15.617 36.9411 15.225 37.2584 14.889C37.5804 14.5483 37.9537 14.2823 38.3784 14.091C38.8031 13.8997 39.2557 13.804 39.7364 13.804C40.2637 13.804 40.7467 13.9113 41.1854 14.126C41.6287 14.336 42.0067 14.63 42.3194 15.008C42.6367 15.386 42.8724 15.8247 43.0264 16.324C43.1851 16.8233 43.2434 17.3577 43.2014 17.927H37.4894C37.5454 18.3237 37.6761 18.6783 37.8814 18.991C38.0867 19.299 38.3481 19.544 38.6654 19.726C38.9874 19.908 39.3444 20.0013 39.7364 20.006C40.1564 20.006 40.5367 19.8987 40.8774 19.684C41.2181 19.4647 41.4934 19.166 41.7034 18.788L42.9004 19.068C42.6204 19.6887 42.1981 20.1973 41.6334 20.594C41.0687 20.986 40.4364 21.182 39.7364 21.182ZM37.4544 17.003H42.0184C41.9811 16.611 41.8551 16.254 41.6404 15.932C41.4257 15.6053 41.1527 15.344 40.8214 15.148C40.4901 14.952 40.1284 14.854 39.7364 14.854C39.3444 14.854 38.9851 14.9497 38.6584 15.141C38.3317 15.3323 38.0611 15.5913 37.8464 15.918C37.6364 16.24 37.5057 16.6017 37.4544 17.003Z" fill="white"/>
<defs>
<linearGradient id="paint0_linear_291_3768" x1="-1.92163e-07" y1="16.5" x2="56.0073" y2="16.8281" gradientUnits="userSpaceOnUse">
<stop stop-color="#E9A707"/>
<stop offset="1" stop-color="#F2800D"/>
</linearGradient>
</defs>
</svg>
